<svg width="88" height="378" viewBox="0 0 88 378" fill="none" xmlns="http://www.w3.org/2000/svg">
<path d="M53.6313 118.675L25.3146 105.892L22.7951 96.6877L17.0423 96.438L6.60303 93.703L7.85849 96.6877L20.9979 109.875L24.2397 112.111L53.8549 133.503L53.6313 118.675Z" fill="white" stroke="#263238" stroke-width="1.00396" stroke-miterlimit="10"/>
<path d="M22.7948 96.6876L20.0947 94.4521L14.7031 97.1871L15.5974 98.6735L22.7948 96.6876Z" fill="white" stroke="#263238" stroke-width="1.00396" stroke-linejoin="round"/>
<path d="M53.6313 118.675L25.3146 105.892L22.7951 96.6877L17.0423 96.438L6.60303 93.703L7.85849 96.6877L20.9979 109.875L24.2397 112.111L53.8549 133.503L53.6313 118.675Z" fill="white"/>
<mask id="mask0_104_426" style="mask-type:luminance" maskUnits="userSpaceOnUse" x="6" y="93" width="48" height="41">
<path d="M53.6313 118.675L25.3146 105.892L22.7951 96.6877L17.0423 96.438L6.60303 93.703L7.85849 96.6877L20.9979 109.875L24.2397 112.111L53.8549 133.503L53.6313 118.675Z" fill="white"/>
</mask>
<g mask="url(#mask0_104_426)">
<path opacity="0.5" d="M53.6313 118.675L25.3146 105.892L22.7951 96.6877L17.0423 96.438L6.60303 93.703L7.85849 96.6877L20.9979 109.875L24.2397 112.111L53.8549 133.503L53.6313 118.675Z" fill="#92E3A9" stroke="#263238" stroke-width="1.00396" stroke-miterlimit="10"/>
</g>
<path d="M53.6313 118.675L25.3146 105.892L22.7951 96.6877L17.0423 96.438L6.60303 93.703L7.85849 96.6877L20.9979 109.875L24.2397 112.111L53.8549 133.503L53.6313 118.675Z" stroke="#263238" stroke-width="1.00396" stroke-miterlimit="10"/>
<path d="M22.7948 96.6876L20.0947 94.4521L14.7031 97.1871L15.5974 98.6735L22.7948 96.6876Z" fill="white"/>
<mask id="mask1_104_426" style="mask-type:luminance" maskUnits="userSpaceOnUse" x="14" y="94" width="9" height="5">
<path d="M22.7948 96.6876L20.0947 94.4521L14.7031 97.1871L15.5974 98.6735L22.7948 96.6876Z" fill="white"/>
</mask>
<g mask="url(#mask1_104_426)">
<path opacity="0.5" d="M22.7948 96.6876L20.0947 94.4521L14.7031 97.1871L15.5974 98.6735L22.7948 96.6876Z" fill="#92E3A9" stroke="#263238" stroke-width="1.00396" stroke-linejoin="round"/>
</g>
<path d="M22.7948 96.6876L20.0947 94.4521L14.7031 97.1871L15.5974 98.6735L22.7948 96.6876Z" stroke="#263238" stroke-width="1.00396" stroke-linejoin="round"/>
<path d="M59.6422 35.7095C59.6422 35.7095 59.2036 41.0606 60.2957 44.4971C61.3878 47.9337 67.4501 59.5752 67.4501 59.5752L56.1337 72.1204C56.1337 72.1204 51.4387 59.0401 50.5444 56.9235C49.6501 54.8068 48.5752 45.6981 51.4903 39.1699C54.4053 32.6416 58.6017 30.8817 59.6422 35.7095Z" fill="white"/>
<mask id="mask2_104_426" style="mask-type:luminance" maskUnits="userSpaceOnUse" x="49" y="32" width="19" height="41">
<path d="M59.6422 35.7095C59.6422 35.7095 59.2036 41.0606 60.2957 44.4971C61.3878 47.9337 67.4501 59.5752 67.4501 59.5752L56.1337 72.1204C56.1337 72.1204 51.4387 59.0401 50.5444 56.9235C49.6501 54.8068 48.5752 45.6981 51.4903 39.1699C54.4053 32.6416 58.6017 30.8817 59.6422 35.7095Z" fill="white"/>
</mask>
<g mask="url(#mask2_104_426)">
<g style="mix-blend-mode:multiply" opacity="0.5">
<path d="M53.8289 52.9042L58.7389 66.9834L56.1248 72.1323L51.189 59.9438L53.8289 52.9042Z" fill="#92E3A9"/>
</g>
</g>
<path d="M59.6422 35.7095C59.6422 35.7095 59.2036 41.0606 60.2957 44.4971C61.3878 47.9337 67.4501 59.5752 67.4501 59.5752L56.1337 72.1204C56.1337 72.1204 51.4387 59.0401 50.5444 56.9235C49.6501 54.8068 48.5752 45.6981 51.4903 39.1699C54.4053 32.6416 58.6017 30.8817 59.6422 35.7095Z" stroke="#263238" stroke-width="1.00396" stroke-miterlimit="10"/>
<path d="M63.1503 25.9111C62.4537 19.9655 57.5265 7.87215 49.7099 8.3359C44.6365 8.64507 42.2631 10.0601 40.0618 11.7844C38.2674 13.2463 36.5948 14.977 35.0743 16.9451C31.2563 23.2832 29.9149 25.0193 30.6544 29.8709C30.5937 31.806 30.813 33.7385 31.2993 35.5549C32.4688 39.8714 33.2685 42.6897 34.2832 44.7468C33.9736 46.7565 33.1653 52.0599 33.1223 53.2728C33.0793 54.4857 35.7021 53.6415 37.0263 53.1777C39.4857 60.7881 43.9916 66.0678 45.3932 66.6742C47.8353 67.7326 51.6963 62.1794 53.7429 57.8747C55.7895 53.5701 54.2416 48.7304 54.2502 46.804C54.2588 44.8776 58.8507 40.6444 60.5533 39.3006C62.256 37.9569 63.8382 31.8449 63.1503 25.9111Z" fill="white"/>
<mask id="mask3_104_426" style="mask-type:luminance" maskUnits="userSpaceOnUse" x="30" y="8" width="34" height="59">
<path d="M63.1503 25.9111C62.4537 19.9655 57.5265 7.87215 49.7099 8.3359C44.6365 8.64507 42.2631 10.0601 40.0618 11.7844C38.2674 13.2463 36.5948 14.977 35.0743 16.9451C31.2563 23.2832 29.9149 25.0193 30.6544 29.8709C30.5937 31.806 30.813 33.7385 31.2993 35.5549C32.4688 39.8714 33.2685 42.6897 34.2832 44.7468C33.9736 46.7565 33.1653 52.0599 33.1223 53.2728C33.0793 54.4857 35.7021 53.6415 37.0263 53.1777C39.4857 60.7881 43.9916 66.0678 45.3932 66.6742C47.8353 67.7326 51.6963 62.1794 53.7429 57.8747C55.7895 53.5701 54.2416 48.7304 54.2502 46.804C54.2588 44.8776 58.8507 40.6444 60.5533 39.3006C62.256 37.9569 63.8382 31.8449 63.1503 25.9111Z" fill="white"/>
</mask>
<g mask="url(#mask3_104_426)">
<g style="mix-blend-mode:multiply" opacity="0.5">
<path d="M30.6889 29.8709C30.6283 31.806 30.8475 33.7384 31.3339 35.5549C32.5033 39.8714 33.3031 42.6896 34.3177 44.7468C34.0082 46.7564 33.1999 52.0599 33.1569 53.2728C33.1139 54.4857 35.7366 53.6414 37.0609 53.1777C39.5202 60.7881 44.0261 66.0678 45.4277 66.6742C47.8699 67.7325 51.7308 62.1793 53.7774 57.8747C54.2887 56.8 54.6206 55.5814 54.7491 54.3073C54.6373 53.7485 54.5599 53.4036 54.5599 53.4036C54.5599 53.4036 53.4077 59.5276 51.1203 58.7309C48.833 57.9342 45.3331 51.5961 43.3812 49.4082C41.4292 47.2202 42.2289 44.3425 41.8419 41.0843C41.455 37.8261 35.6764 34.9603 35.2894 33.0934C34.9025 31.2265 36.2525 23.4972 36.2525 23.4972C36.2525 23.4972 38.4453 19.4542 37.9724 21.1189C37.6381 22.5624 37.5168 24.0841 37.6158 25.5936C37.7148 27.1031 38.0319 28.5697 38.5485 29.9065C38.911 30.9614 39.486 31.849 40.2045 32.4629C40.9229 33.0767 41.7543 33.3906 42.5986 33.3669L44.6968 18.9904L40.2683 13.9247L35.1089 16.8976C31.2565 23.2831 29.9408 25.0193 30.6889 29.8709Z" fill="#92E3A9"/>
</g>
</g>
<path d="M63.1503 25.9111C62.4537 19.9655 57.5265 7.87215 49.7099 8.3359C44.6365 8.64507 42.2631 10.0601 40.0618 11.7844C38.2674 13.2463 36.5948 14.977 35.0743 16.9451C31.2563 23.2832 29.9149 25.0193 30.6544 29.8709C30.5937 31.806 30.813 33.7385 31.2993 35.5549C32.4688 39.8714 33.2685 42.6897 34.2832 44.7468C33.9736 46.7564 33.1653 52.0599 33.1223 53.2728C33.0793 54.4857 35.7021 53.6415 37.0263 53.1777C39.4857 60.7881 43.9916 66.0678 45.3932 66.6742C47.8353 67.7326 51.6963 62.1794 53.7429 57.8747C55.7895 53.5701 54.2416 48.7304 54.2502 46.804C54.2588 44.8776 58.8507 40.6444 60.5533 39.3006C62.256 37.9569 63.8382 31.8449 63.1503 25.9111Z" stroke="#263238" stroke-miterlimit="10"/>
<path d="M35.3496 41.1557L36.2095 44.5566C36.2095 44.5566 38.0583 45.4008 40.3113 42" stroke="#263238" stroke-miterlimit="10" stroke-linecap="round"/>
<path d="M41.7041 57.0424C41.7041 57.0424 43.7507 56.757 44.5762 52.7853" stroke="#263238" stroke-miterlimit="10" stroke-linecap="round"/>
<path d="M33.9131 38.3137C33.9131 38.3137 34.5236 35.757 38.2126 35.757" stroke="#263238" stroke-miterlimit="10" stroke-linecap="round"/>
<path d="M52.8227 3.60316C50.1422 3.07013 47.439 2.78411 44.731 2.74699C44.731 2.74699 36.6307 -3.70994 28.8485 3.17508C21.0664 10.0601 24.807 22.1178 24.807 25.1263C24.807 28.1348 22.3132 28.1467 23.8697 32.0232C25.4261 35.8997 30.6887 33.7593 30.6887 33.7593C30.7443 32.2972 31.0237 30.8681 31.5085 29.5664C31.9932 28.2647 32.6722 27.1202 33.5006 26.2084C36.3039 23.1999 38.5397 22.5459 39.4684 23.4139C39.4684 23.4139 38.8492 29.8709 39.7779 32.4513C39.7779 32.4513 42.8908 34.6036 43.8281 34.6036C44.7654 34.6036 43.2175 36.4229 46.3218 38.0402C46.8874 38.321 47.4923 38.4167 48.0891 38.3198C48.6859 38.2228 49.2584 37.9358 49.7614 37.4813C50.2172 34.8652 51.2147 30.9292 53.0721 31.8448C55.798 33.1885 58.2831 42.4637 54.5941 45.6267C59.0312 46.7445 64.4056 35.8878 64.7238 25.9943C65.042 16.1008 57.4318 4.72094 52.8227 3.60316Z" fill="#263238"/>
<path d="M39.6064 19.1688C39.6064 19.1688 41.8938 17.4683 44.6971 21.107C47.5004 24.7457 52.9522 29.6092 60.1754 26.9337" stroke="white" stroke-width="0.5" stroke-linecap="round" stroke-linejoin="round"/>
<path d="M39.2881 16.2554C39.2881 16.2554 40.8617 12.8545 43.493 12.8545C46.1243 12.8545 52.2727 17.9559 57.1827 17.9559" stroke="white" stroke-width="0.5" stroke-linecap="round" stroke-linejoin="round"/>
<path d="M37.4994 22.8075C37.4994 22.8075 34.5156 17.718 31.7123 21.8443C28.909 25.9705 30.689 29.8708 30.689 29.8708" stroke="white" stroke-width="0.5" stroke-linecap="round" stroke-linejoin="round"/>
<path d="M25.5723 26.2085C27.2822 24.076 28.3451 21.1277 28.5475 17.9559C28.9001 12.6168 34.1713 8.00299 37.4992 12.379" stroke="white" stroke-width="0.5" stroke-linecap="round" stroke-linejoin="round"/>
<path d="M31.0068 6.78999C31.0068 6.78999 36.2781 -0.249612 40.6636 8.72826" stroke="white" stroke-width="0.5" stroke-linecap="round" stroke-linejoin="round"/>
<path d="M73.9077 352.908C73.9077 352.908 77.1496 359.876 76.7884 364.359L76.4358 368.842C76.4358 368.842 64.5433 373.349 62.0238 373.349C59.5043 373.349 46.1671 371.601 46.1671 371.601L45.591 368.438C45.5507 368.204 45.5697 367.959 45.6448 367.742C45.72 367.525 45.8467 367.351 46.0037 367.249L57.8963 359.579L61.6454 353.907L73.9077 352.908Z" fill="white" stroke="#263238" stroke-width="1.00396" stroke-miterlimit="10"/>
<path d="M63.8296 369.841C67.0543 370.186 73.1768 367.463 76.7282 365.727L76.4788 368.842C76.4788 368.842 64.5433 373.349 62.0238 373.349C59.5043 373.349 46.1672 371.601 46.1672 371.601L45.7544 369.342C47.887 369.353 59.5645 369.389 63.8296 369.841Z" fill="#92E3A9" stroke="#263238" stroke-width="1.00396" stroke-miterlimit="10"/>
<path d="M57.9136 359.579L40.6036 369.996C40.6036 369.996 39.1246 375.121 40.6036 376.143C42.0827 377.166 74.3292 376.143 74.3292 376.143C74.3292 376.143 76.5563 368.045 73.0393 362.611C69.5223 357.177 57.9136 359.579 57.9136 359.579Z" fill="white" stroke="#263238" stroke-width="1.00396" stroke-miterlimit="10"/>
<path d="M74.329 376.143C74.329 376.143 42.0826 377.166 40.6035 376.143C39.8898 375.644 39.864 374.205 40.0274 372.838H74.8966C74.7826 373.962 74.5926 375.068 74.329 376.143Z" fill="#92E3A9" stroke="#263238" stroke-width="1.00396" stroke-miterlimit="10"/>
<path d="M49.7271 178.582C49.7271 178.582 45.204 206.301 43.4928 223.638C41.7816 240.976 40.7755 275.71 41.1366 279.694C41.4978 283.677 59.5042 350.423 59.5042 350.423L61.3014 356.368L73.9076 352.884C73.9076 352.884 68.1463 327.484 65.9879 313.536C63.8296 299.588 59.1087 276.673 59.1087 272.69C59.1087 268.706 70.2874 192.626 71.0872 187.632C71.8869 182.637 75.5157 174.968 75.5157 174.968L51.3781 174.29L49.7271 178.582Z" fill="#92E3A9" stroke="#263238" stroke-width="1.00396" stroke-miterlimit="10"/>
<path d="M49.7267 178.582C49.7267 178.582 47.0782 203.899 48.1703 221.498C49.2624 239.097 51.6099 276.566 51.6099 282.143C51.6099 287.72 58.1194 321.027 58.4892 331.492C59.0653 346.605 58.257 354.085 58.257 354.085L57.87 359.567C57.87 359.567 65.463 361.065 67.1226 361.719C69.0395 362.402 71.0176 362.699 72.9958 362.599C72.9958 362.599 75.7561 345.797 75.7561 331.48C75.7561 317.163 73.4601 287.696 72.3165 275.758C71.1728 263.819 74.7758 217.764 76.8224 209.167C78.8689 200.569 83.3405 182.364 80.3308 173.065C77.3211 163.766 49.7267 178.582 49.7267 178.582Z" fill="#92E3A9" stroke="#263238" stroke-width="1.00396" stroke-miterlimit="10"/>
<path d="M83.6761 168.404L83.4009 179.724C83.4009 179.724 78.4995 181.068 71.8954 182.649C66.4436 183.957 52.7539 182.304 48.1448 181.686C47.7248 181.635 47.3364 181.356 47.0643 180.911C46.7921 180.465 46.6582 179.889 46.6915 179.308L47.1387 169.081L83.6761 168.404Z" fill="#263238"/>
<path d="M64.5177 55.5559C64.5177 55.5559 56.7785 67.1261 53.8634 74.3203C50.9483 81.5145 49.7961 92.5376 48.704 101.218C47.6119 109.899 50.57 130.28 49.7359 139.639L47.096 169.117C47.096 169.117 46.5284 171.115 48.4288 173.303C50.3292 175.491 59.6076 176.287 67.9917 176.87C71.0529 177.084 80.1937 174.361 81.69 174.23C83.4958 174.076 83.556 170.901 83.6334 168.404C83.9945 156.667 85.5252 125.381 86.5313 111.754C88.6036 83.964 77.2615 57.1374 64.5177 55.5559Z" fill="white" stroke="#263238" stroke-width="1.00396" stroke-miterlimit="10"/>
<g style="mix-blend-mode:multiply">
<path d="M85.5856 127.557C85.9295 121.386 86.2735 115.785 86.5745 111.754C86.6605 110.565 86.7121 109.376 86.7551 108.186L66.1947 112.943L48.5322 104.619C48.5342 109.673 48.7409 114.723 49.1514 119.745L66.4785 126.451L85.5856 127.557Z" fill="#92E3A9"/>
</g>
<g style="mix-blend-mode:multiply">
<path d="M63.7524 56.7213C62.583 58.5168 60.2612 62.1674 58.0513 66.044L71.1046 84.3921L75.4042 82.0139L63.7524 56.7213Z" fill="#92E3A9"/>
</g>
<path d="M64.5172 55.5559C64.5172 55.5559 56.7781 67.1261 53.863 74.3203C52.9986 76.5066 52.2985 78.8097 51.7734 81.1934L67.3377 56.3288C66.4182 55.9436 65.4735 55.6848 64.5172 55.5559Z" fill="#263238"/>
<g style="mix-blend-mode:multiply">
<path d="M49.3057 96.5331L66.1942 104.215L86.703 100.957C86.3815 93.8917 85.2465 86.943 83.3407 80.3729L66.8048 89.541L52.023 80.2778C50.8143 85.5908 49.9058 91.0256 49.3057 96.5331Z" fill="#92E3A9"/>
</g>
<g style="mix-blend-mode:multiply">
<path d="M78.3791 156.667C69.8133 158.656 61.0242 157.663 52.8055 153.777L48.6865 151.827L47.4053 166.097L52.1004 167.916C61.0259 171.367 70.3547 172.361 79.5572 170.841L83.3494 170.211C83.5467 169.633 83.6578 169.006 83.6761 168.368C83.7793 165.193 83.9599 160.579 84.1921 155.288L78.3791 156.667Z" fill="#92E3A9"/>
</g>
<g style="mix-blend-mode:multiply">
<path d="M80.6749 137.237C72.1088 139.233 63.3176 138.236 55.1013 134.335L49.8559 131.85C49.986 134.441 49.9601 137.042 49.7785 139.627L49.168 146.488L54.3962 148.51C63.3183 151.964 72.6442 152.962 81.8444 151.447L84.4241 151.019C84.6391 146.262 84.8885 141.197 85.155 136.19L80.6749 137.237Z" fill="#92E3A9"/>
</g>
<path d="M-0.000142365 86.9512L16.6265 105.437L17.3431 104.205L0.71649 85.7186L-0.000142365 86.9512Z" fill="#263238"/>
<path d="M72.5231 68.3865C72.5231 68.3865 78.6199 74.13 78.7574 87.6979C78.8176 93.6435 78.3705 99.1967 77.3816 108.936C76.3927 118.675 70.253 150.388 65.4719 154.241C60.6908 158.094 53.2698 150.817 53.2698 150.817L17.3773 117.866L8.7009 108.175L4.40137 96.9493L5.75142 93.3819L16.3369 104.607L10.6357 97.3179L11.7536 95.3558L13.8173 97.3417L19.8367 100.457L21.1523 112.348L23.0097 114.108L57.3458 131.458C57.3458 131.458 56.9158 105.903 57.234 101.016C57.5522 96.1288 57.9907 83.8451 61.7743 74.9386" fill="white"/>
<mask id="mask4_104_426" style="mask-type:luminance" maskUnits="userSpaceOnUse" x="4" y="68" width="75" height="88">
<path d="M72.5231 68.3865C72.5231 68.3865 78.6199 74.13 78.7574 87.6979C78.8176 93.6435 78.3705 99.1967 77.3816 108.936C76.3927 118.675 70.253 150.388 65.4719 154.241C60.6908 158.094 53.2698 150.817 53.2698 150.817L17.3773 117.866L8.7009 108.175L4.40137 96.9493L5.75142 93.3819L16.3369 104.607L10.6357 97.3179L11.7536 95.3558L13.8173 97.3417L19.8367 100.457L21.1523 112.348L23.0097 114.108L57.3458 131.458C57.3458 131.458 56.9158 105.903 57.234 101.016C57.5522 96.1288 57.9907 83.8451 61.7743 74.9386" fill="white"/>
</mask>
<g mask="url(#mask4_104_426)">
<g style="mix-blend-mode:multiply" opacity="0.5">
<path d="M57.1051 112.146C57.1051 120.97 57.32 131.458 57.32 131.458L23.0184 114.18L21.161 112.42L19.8453 100.529L13.826 97.4131L11.7708 95.3915L10.6529 97.3536L16.3369 104.607L5.75147 93.3819L4.47021 96.8898L8.76975 108.115L17.4462 117.866L19.6304 119.876L67.0542 141.006L57.1051 112.146Z" fill="#92E3A9"/>
</g>
</g>
<path d="M72.5231 68.3865C72.5231 68.3865 78.6199 74.13 78.7574 87.6979C78.8176 93.6435 78.3705 99.1967 77.3816 108.936C76.3927 118.675 70.253 150.388 65.4719 154.241C60.6908 158.094 53.2698 150.817 53.2698 150.817L17.3773 117.866L8.7009 108.175L4.40137 96.9493L5.75142 93.3819L16.3369 104.607L10.6357 97.3179L11.7536 95.3558L13.8173 97.3417L19.8367 100.457L21.1523 112.348L23.0097 114.108L57.3458 131.458C57.3458 131.458 56.9158 105.903 57.234 101.016C57.5522 96.1288 57.9907 83.8451 61.7743 74.9386" stroke="#263238" stroke-width="1.00396" stroke-miterlimit="10"/>
<path d="M57.3457 131.458L70.4506 144.538L73.8473 136.214C73.8473 136.214 76.1948 133.658 76.5388 131.731C76.8827 129.805 76.4442 126.677 76.7967 124.751C77.1493 122.825 78.9035 121.017 79.0669 116.356C79.2303 111.694 79.0669 107.806 79.0669 107.806C79.0669 107.806 81.9046 91.6696 81.595 84.6538C81.2855 77.638 76.3926 65.2354 72.4714 64.9619C68.5502 64.6884 63.451 65.5089 59.4954 73.7852C55.5399 82.0615 56.3482 106.224 55.729 107.735C55.1099 109.245 55.9698 116.701 55.9698 116.701C55.6261 117.055 55.341 117.507 55.1335 118.025C54.9259 118.544 54.8006 119.118 54.7659 119.709C54.6972 121.647 56.2106 126.416 56.2106 126.416L57.3457 131.458Z" fill="white" stroke="#263238" stroke-width="1.00396" stroke-miterlimit="10"/>
<g style="mix-blend-mode:multiply">
<path d="M56.0738 101.527C56.1008 103.602 55.9885 105.676 55.7384 107.723C55.1881 109.078 55.8158 115.202 55.9534 116.451C63.3244 119.617 71.1185 120.43 78.7495 118.829C78.9135 118.002 79.0115 117.153 79.0419 116.296C79.2139 111.647 79.0419 107.746 79.0419 107.746C79.0419 107.746 79.2913 106.308 79.6352 104.12C71.7322 104.814 63.798 103.941 56.0738 101.527Z" fill="#92E3A9"/>
</g>
<g style="mix-blend-mode:multiply">
<path d="M58.9626 75.1051C57.7329 78.5179 57.045 83.643 56.6494 88.8395C64.4557 92.9592 72.8723 94.3758 81.1653 92.9657C81.4962 90.2156 81.643 87.4292 81.6039 84.6419C81.455 82.4386 81.0785 80.2762 80.486 78.2206C73.2448 78.4543 66.0118 77.4073 58.9626 75.1051Z" fill="#92E3A9"/>
</g>
<path d="M56.2109 126.546L57.3202 131.458L70.4252 144.538L73.8218 136.214C73.8218 136.214 76.1694 133.657 76.5133 131.731C76.5747 131.396 76.6121 131.054 76.6251 130.708C69.7191 130.543 62.8575 129.145 56.2109 126.546Z" fill="#263238"/>
<path d="M65.6955 361.565C65.6955 361.565 65.9879 351.267 67.4154 336.213C68.8428 321.158 65.4118 299.778 64.8356 296.21C64.2595 292.643 65.128 284.724 64.5519 281.941C63.9757 279.158 61.1896 267.291 62.8321 253.521C64.4745 239.751 65.8073 203.352 65.8073 203.352C65.8073 203.352 61.6712 198.702 60.4587 192.65C59.2462 186.597 60.1749 184.695 60.1749 184.695" stroke="#263238" stroke-width="1.00396" stroke-miterlimit="10"/>
<path d="M67.6133 185.254L66.0225 197.43" stroke="#263238" stroke-width="1.00396" stroke-miterlimit="10"/>
</svg>
