<svg width="177" height="377" viewBox="0 0 177 377" fill="none" xmlns="http://www.w3.org/2000/svg">
<path d="M17.6487 0.5H158.829C168.244 0.5 175.978 9.15269 175.978 19.9594V357.041C175.978 367.847 168.244 376.5 158.829 376.5H17.6487C8.23378 376.5 0.5 367.847 0.5 357.041V19.9594C0.5 9.15269 8.23378 0.5 17.6487 0.5Z" fill="#263238" stroke="#263238"/>
<path d="M168.63 41.3981H7.83887V335.602H168.63V41.3981Z" fill="white" stroke="#263238" stroke-width="1.33739" stroke-miterlimit="10"/>
<path d="M112.552 105.162C125.98 120.348 125.98 144.969 112.552 160.155C99.1242 175.341 77.3535 175.341 63.9257 160.155C50.498 144.969 50.498 120.348 63.9257 105.162C77.3535 89.9765 99.1242 89.9765 112.552 105.162Z" fill="#92E3A9" stroke="#263238"/>
<path d="M42.4913 316.601V316.601L42.4881 316.601C42.3572 316.602 42.2258 316.574 42.1006 316.516C41.9753 316.458 41.8569 316.37 41.7544 316.255C41.6517 316.14 41.5674 315.999 41.509 315.84C41.4506 315.681 41.4199 315.509 41.42 315.334L41.4199 315.332C41.419 315.156 41.449 314.983 41.5071 314.823C41.5651 314.664 41.6493 314.522 41.7521 314.406C41.8548 314.29 41.9734 314.202 42.0992 314.143C42.2248 314.085 42.3567 314.056 42.488 314.057V314.057H42.4913H133.996C134.127 314.057 134.258 314.086 134.383 314.145C134.508 314.204 134.626 314.292 134.728 314.408C134.83 314.525 134.914 314.666 134.972 314.825L135.442 314.655L134.972 314.825C135.029 314.984 135.059 315.157 135.058 315.332V315.334C135.058 315.689 134.933 316.018 134.726 316.252C134.521 316.485 134.256 316.601 133.996 316.601H42.4913Z" fill="#92E3A9" stroke="#263238"/>
<path d="M39.5027 194.732H136.975C138.654 194.732 140.117 196.293 140.117 198.351V211.346C140.117 213.404 138.654 214.965 136.975 214.965H39.5027C37.8233 214.965 36.3604 213.404 36.3604 211.346V198.351C36.3604 196.293 37.8233 194.732 39.5027 194.732Z" fill="#92E3A9" stroke="#263238"/>
<path d="M39.5027 234.445H136.975C138.654 234.445 140.117 236.006 140.117 238.065V251.059C140.117 253.118 138.654 254.679 136.975 254.679H39.5027C37.8233 254.679 36.3604 253.118 36.3604 251.059V238.065C36.3604 236.006 37.8233 234.445 39.5027 234.445Z" fill="#92E3A9" stroke="#263238"/>
<path d="M105.32 152.739L105.32 152.739C106.441 153.469 107.379 154.525 108.034 155.807C108.689 157.089 109.035 158.547 109.035 160.035V160.035V163.628C103.053 168.787 95.7468 171.575 88.239 171.575C80.7312 171.575 73.4249 168.787 67.4434 163.628V160.035C67.4445 158.548 67.7916 157.09 68.4465 155.808C69.1013 154.527 70.0386 153.471 71.1584 152.739C71.1586 152.739 71.1587 152.739 71.1588 152.739L81.4133 146.062L81.6404 145.914V145.643V140.127V139.964L81.5445 139.832C80.0109 137.729 78.9175 135.254 78.3504 132.596L78.2351 132.055L77.7088 132.224L76.9721 132.46C76.9291 132.366 76.8799 132.255 76.8261 132.131C76.6299 131.679 76.3739 131.043 76.1352 130.312C75.6512 128.83 75.2654 127.037 75.5196 125.587C75.5676 125.324 75.6196 125.144 75.6668 125.027C75.7014 125.065 75.7409 125.114 75.7847 125.175L76.7036 126.448L76.6901 124.878C76.6742 123.036 76.2589 121.225 75.478 119.601L75.469 119.583L75.4586 119.565C75.0876 118.933 74.8217 118.019 74.6736 116.959C74.5267 115.908 74.5009 114.75 74.5858 113.657C74.671 112.562 74.8656 111.555 75.1462 110.799C75.2866 110.42 75.442 110.122 75.6029 109.909C75.7603 109.701 75.9018 109.602 76.0143 109.563C77.5236 109.166 79.067 108.963 80.6157 108.957L80.9581 108.955L81.0806 108.636C81.7507 106.886 82.867 105.414 84.2753 104.405C85.6826 103.397 87.318 102.896 88.9698 102.957L88.979 102.958H88.9883C92.0801 102.958 93.9011 103.862 95.1916 105.137C96.2708 106.204 96.9948 107.535 97.7661 108.954C97.9455 109.284 98.1274 109.618 98.317 109.955C99.2208 111.562 100.266 112.186 101.029 112.64C101.153 112.714 101.269 112.784 101.377 112.852C101.749 113.091 101.969 113.289 102.097 113.589C102.232 113.904 102.297 114.408 102.164 115.318C101.891 117.185 101.552 118.331 101.29 118.998C101.16 119.331 101.049 119.543 100.977 119.666C100.941 119.727 100.915 119.766 100.9 119.786C100.895 119.794 100.891 119.799 100.889 119.801L100.587 120.142L100.908 120.473L100.909 120.473L100.909 120.474L100.91 120.474L100.91 120.474L100.91 120.475L100.919 120.484C100.929 120.495 100.945 120.514 100.966 120.54C101.009 120.592 101.071 120.673 101.144 120.782C101.29 121.002 101.474 121.332 101.617 121.764C101.901 122.618 102.034 123.898 101.343 125.553L101.309 125.635L101.305 125.724C101.238 127.291 101.005 129.167 100.637 130.64C100.452 131.38 100.24 131.989 100.014 132.401C99.9004 132.608 99.7965 132.741 99.711 132.817C99.6359 132.883 99.5974 132.888 99.5898 132.888C99.2797 132.887 98.9708 132.827 98.6758 132.708L98.1342 132.491L98.0023 133.059C97.4255 135.546 96.3774 137.857 94.9339 139.832L94.8375 139.964V140.127V145.643V145.914L95.0647 146.062L105.32 152.739ZM75.5422 124.913C75.5422 124.913 75.5428 124.914 75.5439 124.914C75.5428 124.914 75.5422 124.914 75.5422 124.913Z" fill="#263238" stroke="#263238"/>
<path d="M49.274 249.339C49.2247 249.376 49.1736 249.394 49.1255 249.398C49.0439 249.393 48.9543 249.354 48.8776 249.268L48.869 249.258L48.8599 249.249C48.8206 249.209 48.7857 249.157 48.7607 249.093L48.2951 249.275L48.7607 249.093C48.736 249.03 48.7226 248.96 48.7228 248.887C48.7247 248.782 48.7517 248.682 48.7971 248.599C48.7973 248.599 48.7974 248.598 48.7975 248.598L50.4316 245.641L50.8587 244.868L49.9763 244.9L46.7881 245.013L46.7793 245.013L46.7705 245.014C46.7304 245.016 46.689 245.01 46.6478 244.992C46.61 244.976 46.5711 244.95 46.535 244.913C46.4657 244.819 46.4219 244.691 46.4219 244.552C46.4219 244.409 46.4675 244.279 46.5394 244.185C46.5751 244.144 46.6142 244.117 46.6518 244.1C46.6909 244.083 46.7301 244.077 46.7677 244.08L46.7761 244.08L46.7846 244.081L49.9274 244.214L50.8135 244.252L50.387 243.474L48.7703 240.526C48.7235 240.441 48.6962 240.338 48.6955 240.229L48.6955 240.229C48.6951 240.156 48.7085 240.084 48.7335 240.021C48.7584 239.957 48.7934 239.904 48.8327 239.865L48.8418 239.855L48.8504 239.846C48.9294 239.757 49.0221 239.718 49.1058 239.715C49.1504 239.717 49.199 239.732 49.2464 239.766C49.2967 239.803 49.3448 239.861 49.3773 239.94L49.3834 239.955L49.3905 239.969L50.9437 243.143L51.394 244.064L51.8424 243.142L53.3775 239.989L53.3824 239.979L53.3868 239.969C53.4265 239.877 53.484 239.807 53.5464 239.762C53.6047 239.72 53.6659 239.699 53.7241 239.695C53.7569 239.696 53.7911 239.705 53.8253 239.722C53.8629 239.741 53.9015 239.772 53.9361 239.815L53.941 239.821L53.9462 239.827C54.0295 239.925 54.0833 240.067 54.0811 240.225L54.0811 240.225L54.0811 240.231C54.0808 240.329 54.0587 240.423 54.0197 240.504L52.3812 243.473L51.9516 244.251L52.8398 244.214L56.0281 244.081L56.0367 244.08L56.0452 244.08C56.0829 244.077 56.1221 244.083 56.1612 244.1C56.2007 244.118 56.2417 244.147 56.2788 244.191L56.2804 244.193C56.3519 244.277 56.3993 244.401 56.3973 244.54L56.3973 244.54L56.3973 244.546C56.397 244.688 56.3512 244.817 56.2796 244.911C56.2431 244.95 56.2036 244.976 56.1651 244.992C56.124 245.01 56.0825 245.016 56.0425 245.014L56.0336 245.013L56.0247 245.013L52.8184 244.9L51.9413 244.869L52.3619 245.639L53.9606 248.567L53.9609 248.567C54.0086 248.654 54.036 248.759 54.0356 248.87V248.871C54.0356 249.03 53.9795 249.171 53.895 249.267C53.8136 249.359 53.7173 249.397 53.6312 249.399C53.5883 249.397 53.5407 249.382 53.4941 249.347L53.1907 249.744L53.4941 249.347C53.4454 249.309 53.3991 249.25 53.3696 249.17L53.3606 249.146L53.3493 249.123L51.8324 246.041L51.3824 245.127L50.9346 246.042L49.4268 249.124L49.4201 249.138L49.4142 249.152C49.3795 249.236 49.3285 249.298 49.274 249.339Z" fill="#263238" stroke="#263238"/>
<path d="M65.1201 243.474L63.5034 240.526C63.4566 240.441 63.4293 240.338 63.4286 240.229L63.4286 240.229C63.4282 240.156 63.4416 240.084 63.4666 240.021C63.4915 239.957 63.5265 239.904 63.5658 239.865L63.5749 239.855L63.5835 239.846C63.6624 239.757 63.7552 239.718 63.8389 239.715C63.8835 239.717 63.9321 239.732 63.9795 239.766C64.0298 239.803 64.0779 239.861 64.1104 239.94L64.1165 239.955L64.1236 239.969L65.6768 243.143L66.1271 244.064L66.5755 243.142L68.1106 239.989L68.1155 239.979L68.1199 239.969C68.1596 239.877 68.2171 239.807 68.2795 239.762C68.3387 239.719 68.401 239.698 68.46 239.695C68.4919 239.696 68.5254 239.704 68.5591 239.721L68.7849 239.275L68.5591 239.721C68.5953 239.739 68.6327 239.768 68.6661 239.811L68.6747 239.822L68.6839 239.833C68.7252 239.88 68.7606 239.939 68.7855 240.008C68.8101 240.076 68.8232 240.15 68.8232 240.226C68.8209 240.325 68.7965 240.419 68.7554 240.499L67.1142 243.473L66.6879 244.245L67.5697 244.214L70.767 244.101L70.7772 244.101L70.7874 244.1C70.8227 244.097 70.8596 244.103 70.8967 244.12L71.1004 243.663L70.8967 244.12C70.9342 244.137 70.9735 244.165 71.0089 244.208L71.0089 244.208L71.0135 244.213C71.085 244.297 71.1324 244.421 71.1304 244.56L71.1304 244.56L71.1304 244.566C71.13 244.709 71.0838 244.839 71.0114 244.933C70.976 244.972 70.9378 244.998 70.9007 245.014C70.8614 245.03 70.8221 245.037 70.7844 245.034L70.7756 245.033L70.7669 245.033L67.5514 244.92L66.6745 244.889L67.095 245.659L68.6936 248.587L68.694 248.588C68.7417 248.675 68.769 248.78 68.7687 248.891V248.892C68.7687 249.05 68.7125 249.192 68.6281 249.287C68.5467 249.379 68.4504 249.418 68.3643 249.419C68.3214 249.418 68.2738 249.403 68.2272 249.367C68.1785 249.33 68.1322 249.271 68.1026 249.191L68.0937 249.167L68.0824 249.144L66.5654 246.062L66.1155 245.148L65.6677 246.063L64.1599 249.145L64.1556 249.154L64.1516 249.163C64.1159 249.244 64.0649 249.304 64.0109 249.342L64.3023 249.749L64.0109 249.342C63.9612 249.378 63.9099 249.395 63.8617 249.398C63.7792 249.394 63.6883 249.355 63.6107 249.268L63.6021 249.258L63.593 249.249C63.5537 249.209 63.5188 249.157 63.4938 249.093L63.0282 249.275L63.4938 249.093C63.4691 249.03 63.4557 248.96 63.4559 248.887C63.4578 248.782 63.4848 248.682 63.5302 248.599C63.5303 248.599 63.5305 248.598 63.5306 248.598L65.1647 245.641L65.5919 244.868L64.7094 244.9L61.5302 245.013L61.5302 245.013L61.5223 245.013C61.477 245.015 61.4304 245.007 61.3846 244.988C61.3413 244.97 61.2976 244.941 61.2571 244.901C61.2043 244.836 61.1641 244.748 61.1485 244.647C61.1323 244.541 61.145 244.433 61.1827 244.339L60.7211 244.154L61.1827 244.339C61.2203 244.245 61.278 244.176 61.3392 244.134C61.3992 244.093 61.4617 244.077 61.5195 244.08L61.5195 244.08L61.5267 244.081L64.6604 244.214L65.5466 244.252L65.1201 243.474Z" fill="#263238" stroke="#263238"/>
<path d="M78.6099 249.399L78.6088 249.399C78.5226 249.398 78.4258 249.36 78.3438 249.268L78.3352 249.258L78.3262 249.249C78.2868 249.209 78.2519 249.157 78.2269 249.093C78.2022 249.03 78.1888 248.96 78.189 248.887C78.1909 248.782 78.2179 248.682 78.2633 248.599C78.2634 248.599 78.2636 248.598 78.2637 248.598L79.8979 245.641L80.325 244.868L79.4425 244.9L76.2634 245.013L76.2634 245.013L76.2586 245.013C76.2013 245.015 76.1395 244.999 76.0801 244.958C76.0197 244.916 75.9627 244.848 75.9253 244.755L75.4616 244.942L75.9253 244.755C75.8879 244.662 75.8747 244.556 75.89 244.451C75.905 244.348 75.9455 244.259 75.9992 244.192C76.0376 244.149 76.0798 244.12 76.1208 244.102C76.1628 244.084 76.205 244.077 76.2457 244.08L76.2457 244.08L76.2598 244.081L79.3935 244.214L80.2797 244.252L79.8532 243.474L78.2365 240.526C78.1907 240.443 78.1636 240.342 78.1618 240.236C78.1642 240.161 78.1792 240.089 78.2049 240.023C78.2314 239.956 78.2679 239.898 78.3098 239.853L78.3099 239.853L78.3166 239.846C78.3965 239.756 78.4905 239.718 78.5751 239.715C78.6192 239.717 78.6672 239.733 78.7141 239.767C78.7639 239.804 78.8113 239.862 78.8435 239.94L78.8496 239.955L78.8567 239.969L80.4099 243.143L80.8602 244.064L81.3086 243.142L82.8437 239.989L82.8486 239.979L82.853 239.969C82.8927 239.877 82.9503 239.807 83.0126 239.762C83.0718 239.719 83.1341 239.698 83.1931 239.695C83.2251 239.696 83.2585 239.704 83.2922 239.721C83.3284 239.739 83.3658 239.768 83.3992 239.811L83.4078 239.822L83.417 239.833C83.4583 239.88 83.4938 239.939 83.5187 240.008C83.5432 240.076 83.5564 240.15 83.5564 240.226C83.5541 240.325 83.5297 240.419 83.4885 240.499L81.8474 243.473L81.4179 244.251L82.306 244.214L85.5033 244.081L85.521 244.08L85.5387 244.078C85.5754 244.074 85.6134 244.078 85.6513 244.093C85.6896 244.108 85.7296 244.133 85.7667 244.173L86.1309 243.83L85.7667 244.173C85.804 244.212 85.8368 244.264 85.8595 244.327C85.8822 244.39 85.8934 244.459 85.891 244.53L85.8907 244.54L85.8908 244.55C85.8918 244.69 85.8488 244.819 85.7797 244.914C85.7438 244.951 85.7053 244.976 85.6677 244.992C85.6265 245.01 85.5851 245.016 85.545 245.014L85.5362 245.013L85.5273 245.013L82.3209 244.9L81.4463 244.869L81.8639 245.638L83.4534 248.566L83.4544 248.567C83.5014 248.653 83.5287 248.756 83.5291 248.865C83.527 248.941 83.5119 249.014 83.486 249.08C83.4595 249.148 83.423 249.205 83.3811 249.25L83.3708 249.261L83.3612 249.273C83.3246 249.318 83.2838 249.349 83.2436 249.369L83.4668 249.817L83.2435 249.369C83.2062 249.388 83.1687 249.397 83.1325 249.398C83.0921 249.396 83.0474 249.381 83.0034 249.347C82.9559 249.311 82.9109 249.252 82.8824 249.174L82.8728 249.147L82.8604 249.122L81.3344 246.04L80.8836 245.13L80.4372 246.042L78.9294 249.124L78.922 249.139L78.9156 249.155C78.8806 249.241 78.8283 249.304 78.7729 249.344C78.7183 249.383 78.6619 249.399 78.6099 249.399Z" fill="#263238" stroke="#263238"/>
<path d="M97.3309 245.909L98.6435 248.327C98.7331 248.49 98.7803 248.679 98.7798 248.871C98.7807 249.007 98.756 249.141 98.7075 249.265C98.6589 249.389 98.5876 249.5 98.4982 249.59L97.3309 245.909ZM97.3309 245.909L97.0364 245.899L97.054 245.399L97.4934 245.161L97.634 245.42L100.26 245.512C100.38 245.521 100.501 245.501 100.614 245.453C100.726 245.405 100.829 245.331 100.914 245.235C101.062 245.045 101.143 244.8 101.141 244.547C101.146 244.413 101.125 244.28 101.08 244.157L97.3309 245.909ZM93.3545 249.399L93.3545 249.399L93.3413 249.399C93.2551 249.398 93.1583 249.36 93.0763 249.268L93.0764 249.268L93.0743 249.266C92.9898 249.172 92.9326 249.033 92.9306 248.875L92.9305 248.874C92.929 248.773 92.9533 248.677 92.9962 248.598C92.9963 248.598 92.9965 248.598 92.9967 248.597L94.6304 245.641L95.0575 244.868L94.175 244.9L90.9959 245.013L90.9959 245.013L90.9879 245.013C90.9426 245.015 90.8961 245.008 90.8502 244.988C90.8095 244.971 90.7684 244.945 90.73 244.908C90.6628 244.814 90.6206 244.689 90.6206 244.552C90.6206 244.413 90.6637 244.287 90.732 244.193C90.7711 244.154 90.8133 244.125 90.8552 244.107C90.9012 244.087 90.9478 244.079 90.9932 244.081C90.9933 244.081 90.9935 244.081 90.9936 244.081L94.1352 244.214L95.0188 244.252L94.5954 243.475L92.9877 240.527L92.9872 240.526C92.9414 240.443 92.9143 240.342 92.9125 240.236C92.9149 240.161 92.9299 240.089 92.9556 240.023C92.982 239.956 93.0186 239.898 93.0605 239.853L93.0605 239.853L93.0673 239.846C93.1482 239.755 93.2436 239.717 93.329 239.715C93.3744 239.716 93.424 239.731 93.4724 239.766C93.5227 239.803 93.5708 239.861 93.6033 239.94L93.6092 239.954L93.616 239.968L95.1601 243.142L95.6096 244.066L96.0593 243.142L97.5944 239.989L97.5993 239.979L97.6037 239.969C97.6433 239.877 97.7009 239.807 97.7633 239.762C97.8226 239.719 97.8848 239.698 97.9438 239.695C97.9757 239.696 98.0092 239.704 98.0428 239.721C98.0791 239.739 98.1165 239.768 98.1499 239.811L98.1585 239.822L98.1677 239.833C98.209 239.88 98.2444 239.939 98.2693 240.008C98.2939 240.076 98.3071 240.15 98.3071 240.226C98.3048 240.325 98.2804 240.419 98.2392 240.499L96.5981 243.473L96.1686 244.251L97.0567 244.214L100.254 244.081L100.272 244.08L100.289 244.078C100.326 244.074 100.364 244.078 100.402 244.093C100.44 244.108 100.48 244.133 100.517 244.173L100.882 243.83L100.517 244.173C100.555 244.212 100.587 244.264 100.61 244.327C100.633 244.39 100.644 244.459 100.642 244.53L100.641 244.54L100.641 244.55C100.642 244.69 100.599 244.819 100.53 244.914C100.495 244.951 100.456 244.976 100.418 244.992C100.377 245.01 100.336 245.016 100.296 245.014L100.287 245.013L100.278 245.013L97.0716 244.9L96.197 244.869L96.6146 245.638L98.2041 248.566L98.2051 248.567C98.2527 248.654 98.2801 248.759 98.2798 248.87L98.2798 248.875C98.2803 248.948 98.2668 249.019 98.2419 249.083C98.2169 249.147 98.182 249.199 98.1426 249.239L98.1265 249.255L98.1119 249.273C98.0753 249.318 98.0345 249.349 97.9942 249.369L98.2175 249.817L97.9942 249.369C97.9569 249.388 97.9194 249.397 97.8832 249.398C97.8428 249.396 97.798 249.381 97.7541 249.347C97.7066 249.311 97.6616 249.252 97.6331 249.174L97.6235 249.147L97.611 249.122L96.0851 246.04L95.6343 245.13L95.1879 246.042L93.68 249.124L93.6726 249.139L93.6662 249.155C93.6306 249.242 93.5769 249.306 93.5204 249.346L93.8076 249.755L93.5204 249.346C93.4648 249.385 93.4073 249.401 93.3545 249.399Z" fill="#263238" stroke="#263238"/>
<path d="M108.076 249.399L108.075 249.399C107.989 249.398 107.893 249.361 107.812 249.27C107.743 249.19 107.693 249.079 107.679 248.951C107.665 248.823 107.688 248.697 107.742 248.593L109.364 245.64L109.788 244.868L108.908 244.9L105.729 245.013L105.729 245.013L105.721 245.013C105.676 245.015 105.629 245.008 105.584 244.988C105.543 244.971 105.502 244.945 105.463 244.908C105.396 244.814 105.354 244.689 105.354 244.552C105.354 244.413 105.397 244.287 105.465 244.193C105.505 244.154 105.547 244.125 105.589 244.107C105.635 244.087 105.681 244.079 105.727 244.081C105.727 244.081 105.727 244.081 105.727 244.081L108.869 244.214L109.755 244.252L109.328 243.474L107.711 240.526C107.665 240.442 107.638 240.341 107.637 240.234C107.64 240.078 107.697 239.941 107.78 239.848L107.78 239.848L107.782 239.846C107.863 239.755 107.959 239.717 108.044 239.715C108.09 239.716 108.139 239.731 108.188 239.766C108.238 239.803 108.286 239.861 108.318 239.94L108.324 239.954L108.331 239.968L109.875 243.142L110.325 244.066L110.775 243.142L112.31 239.989L112.314 239.979L112.319 239.969C112.359 239.877 112.416 239.807 112.479 239.762C112.538 239.719 112.6 239.698 112.659 239.695C112.694 239.695 112.729 239.704 112.765 239.722C112.803 239.741 112.842 239.771 112.877 239.815L112.882 239.821L112.887 239.827C112.97 239.925 113.024 240.067 113.022 240.224C113.02 240.324 112.996 240.419 112.954 240.499L111.313 243.473L110.884 244.251L111.772 244.214L114.969 244.081L114.987 244.08L115.005 244.078C115.041 244.074 115.079 244.078 115.117 244.093C115.156 244.108 115.196 244.133 115.233 244.173C115.27 244.212 115.303 244.264 115.325 244.327L115.795 244.157L115.325 244.327C115.348 244.39 115.359 244.459 115.357 244.53L115.357 244.54L115.357 244.55C115.358 244.69 115.315 244.819 115.246 244.914C115.21 244.951 115.171 244.976 115.134 244.992C115.092 245.01 115.051 245.016 115.011 245.014L115.002 245.013L114.993 245.013L111.787 244.9L110.912 244.869L111.33 245.638L112.919 248.566L112.92 248.567C112.968 248.654 112.995 248.759 112.995 248.87L112.995 248.875C112.995 248.948 112.982 249.019 112.957 249.083C112.932 249.147 112.897 249.199 112.858 249.239L112.842 249.255L112.827 249.273C112.791 249.318 112.75 249.349 112.709 249.369C112.672 249.388 112.635 249.397 112.598 249.398C112.558 249.396 112.513 249.381 112.469 249.347C112.422 249.311 112.377 249.252 112.348 249.174L112.339 249.147L112.326 249.122L110.8 246.04L110.35 245.13L109.903 246.042L108.395 249.124L108.388 249.139L108.382 249.155C108.347 249.241 108.294 249.304 108.239 249.344C108.184 249.383 108.128 249.399 108.076 249.399ZM107.409 239.513C107.578 239.323 107.807 239.216 108.045 239.215C108.2 239.216 108.351 239.267 108.481 239.362C108.612 239.456 108.715 239.591 108.781 239.749L107.409 239.513Z" fill="#263238" stroke="#263238"/>
<path d="M122.941 249.34C122.894 249.376 122.844 249.393 122.798 249.398C122.717 249.393 122.628 249.354 122.552 249.268L122.543 249.258L122.534 249.249C122.494 249.209 122.46 249.157 122.435 249.093C122.41 249.03 122.396 248.96 122.397 248.887C122.399 248.781 122.426 248.681 122.471 248.598C122.471 248.598 122.471 248.598 122.471 248.598L124.097 245.64L124.521 244.868L123.641 244.9L120.462 245.013L120.45 245.013L120.437 245.014C120.399 245.017 120.359 245.012 120.32 244.996C120.281 244.98 120.24 244.953 120.202 244.913C120.164 244.873 120.13 244.82 120.107 244.757C120.083 244.694 120.07 244.624 120.071 244.553L120.071 244.553L120.071 244.544C120.071 244.476 120.083 244.41 120.104 244.35C120.126 244.29 120.157 244.239 120.192 244.199L120.192 244.199L120.199 244.191C120.236 244.147 120.277 244.118 120.317 244.1C120.356 244.083 120.395 244.077 120.432 244.08L120.441 244.08L120.449 244.081L123.592 244.214L124.478 244.252L124.052 243.474L122.435 240.526C122.435 240.526 122.435 240.526 122.435 240.526C122.389 240.442 122.362 240.341 122.36 240.234C122.363 240.078 122.42 239.941 122.504 239.848L122.504 239.848L122.506 239.846C122.587 239.755 122.682 239.717 122.768 239.715C122.813 239.716 122.863 239.731 122.911 239.766C122.962 239.803 123.01 239.861 123.042 239.94L123.048 239.954L123.055 239.968L124.599 243.142L125.047 244.064L125.498 243.144L127.042 239.99L127.047 239.979L127.052 239.968C127.091 239.878 127.148 239.808 127.21 239.763C127.267 239.72 127.328 239.699 127.386 239.695C127.419 239.696 127.454 239.704 127.489 239.722L127.711 239.276L127.489 239.722C127.527 239.741 127.566 239.771 127.601 239.815L127.606 239.821L127.611 239.827C127.694 239.925 127.748 240.067 127.746 240.225L127.746 240.225L127.746 240.231C127.746 240.329 127.723 240.423 127.684 240.504L126.046 243.473L125.616 244.251L126.505 244.214L129.693 244.081L129.701 244.08L129.71 244.08C129.748 244.077 129.787 244.083 129.826 244.1L130.027 243.642L129.826 244.1C129.865 244.118 129.906 244.147 129.944 244.191L129.945 244.193C130.017 244.277 130.064 244.401 130.062 244.54L130.062 244.54L130.062 244.546C130.062 244.688 130.016 244.817 129.944 244.911C129.908 244.95 129.868 244.976 129.83 244.992L130.025 245.453L129.83 244.992C129.789 245.01 129.747 245.016 129.707 245.014L129.698 245.013L129.69 245.013L126.483 244.9L125.609 244.869L126.026 245.638L127.616 248.566L127.617 248.567C127.664 248.654 127.691 248.758 127.691 248.868C127.689 249.024 127.632 249.162 127.548 249.255L127.548 249.255L127.541 249.263C127.464 249.352 127.373 249.392 127.291 249.398C127.252 249.395 127.208 249.38 127.166 249.347C127.118 249.311 127.073 249.252 127.045 249.174L127.035 249.147L127.023 249.122L125.497 246.04L125.046 245.13L124.599 246.042L123.092 249.124L123.084 249.139L123.078 249.155C123.044 249.238 122.994 249.3 122.941 249.34ZM122.133 239.513C122.302 239.323 122.53 239.216 122.769 239.215C122.923 239.216 123.075 239.267 123.205 239.362C123.335 239.456 123.439 239.591 123.504 239.749L122.133 239.513Z" fill="#263238" stroke="#263238"/>
<g style="mix-blend-mode:multiply">
<path d="M8.33887 52.6806V42.2884H168.13V52.6806H8.33887Z" fill="#92E3A9"/>
<path d="M8.33887 52.6806V42.2884H168.13V52.6806H8.33887Z" stroke="#263238"/>
</g>
<path d="M105.719 20.8018H70.7489C70.1178 20.8018 69.5125 20.5182 69.0662 20.0135C68.6199 19.5087 68.3691 18.8242 68.3691 18.1104C68.3691 17.3966 68.6199 16.712 69.0662 16.2073C69.5125 15.7025 70.1178 15.419 70.7489 15.419H105.719C106.351 15.419 106.956 15.7025 107.402 16.2073C107.848 16.712 108.099 17.3966 108.099 18.1104C108.099 18.8242 107.848 19.5087 107.402 20.0135C106.956 20.5182 106.351 20.8018 105.719 20.8018Z" fill="#92E3A9" stroke="#263238" stroke-width="1.33739" stroke-linecap="round" stroke-linejoin="round"/>
<path d="M95.7373 346.48C96.7375 348.176 97.2733 350.174 97.2715 352.222C97.2692 354.965 96.3041 357.585 94.6035 359.508C92.9047 361.429 90.6154 362.496 88.2427 362.499C86.4693 362.5 84.7291 361.908 83.2423 360.786C81.7545 359.663 80.5862 358.06 79.8939 356.173C79.2017 354.285 79.0194 352.205 79.3721 350.197C79.7247 348.19 80.595 346.353 81.8648 344.917C83.1341 343.481 84.7436 342.512 86.4853 342.121C88.2263 341.73 90.0315 341.931 91.6758 342.702C93.3213 343.474 94.7374 344.785 95.7373 346.48Z" fill="#92E3A9" stroke="#263238"/>
<path d="M93.0757 346.758H83.4111V357.688H93.0757V346.758Z" fill="#92E3A9" stroke="#263238" stroke-width="1.33739" stroke-linecap="round" stroke-linejoin="round"/>
</svg>
